<svg width="16" height="16" viewBox="0 0 16 16" fill="none" xmlns="http://www.w3.org/2000/svg">
<path d="M13.946 3.09L9.97734 13.81C9.72668 14.4873 9.00468 14.8353 8.36534 14.5867C8.20702 14.5239 8.06339 14.4291 7.9435 14.3082C7.8236 14.1873 7.73003 14.0429 7.66868 13.884L6.41068 10.704C6.17427 10.0936 5.70562 9.60167 5.10734 9.336L2.07934 8.01533C1.44934 7.74 1.16268 6.97666 1.43801 6.31C1.50314 6.14902 1.59954 6.00256 1.72164 5.87909C1.84374 5.75562 1.98911 5.65759 2.14934 5.59066L12.36 1.424C13.0047 1.16066 13.72 1.49133 13.9567 2.16333C14.0613 2.46066 14.0567 2.79 13.946 3.09Z" fill="#787878"/>
</svg>
